<svg id="Layer_1" data-name="Layer 1" xmlns="http://www.w3.org/2000/svg" viewBox="0 0 93.28 79.79"><defs><style>.cls-1{fill:#fff;}.cls-2{fill:#da0043;}</style></defs><title>imperium logo groep</title><path class="cls-1" d="M171.94,176.27v-8.93a2.32,2.32,0,0,1,.07-.59,1.58,1.58,0,0,1,2.3-.89,1.54,1.54,0,0,1,.83,1.46v8.91c0,.29,0,.6,0,.9a1.44,1.44,0,0,1-1.39,1.13C172.61,178.33,171.94,177.62,171.94,176.27Zm-.2-13a1.66,1.66,0,0,1,3.31-.11,1.66,1.66,0,0,1-3.18.78A1.7,1.7,0,0,1,171.74,163.25Z" transform="translate(-171.63 -111.9)"/><path class="cls-1" d="M178,176.38v-9a1.54,1.54,0,0,1,2.85-1l0,.11.05.07.06-.09.12-.06.15-.14.16-.11a3.7,3.7,0,0,1,2.48-.55,3.28,3.28,0,0,1,2.22,1.06l.22.22.09-.06.14-.14.18-.13.11-.11a4.36,4.36,0,0,1,2.68-.86c2.42-.05,4,1.21,4.39,3.18a3.29,3.29,0,0,1,.07.71v6.7c0,.24,0,.48,0,.75a1.52,1.52,0,0,1-1.62,1.24,1.69,1.69,0,0,1-1.63-1.93V170a1.52,1.52,0,0,0,0-.29,1.32,1.32,0,0,0-1.35-1.17,1.46,1.46,0,0,0-1.74,1.35v6.5a1.64,1.64,0,1,1-3.27,0V170a1.37,1.37,0,0,0-1.7-1.41,1.5,1.5,0,0,0-1.26.9,1.8,1.8,0,0,0-.11.76v6.19a3.19,3.19,0,0,1-.09.7,1.62,1.62,0,0,1-2.46.84A1.64,1.64,0,0,1,178,176.38Z" transform="translate(-171.63 -111.9)"/><path class="cls-1" d="M200,171.85a4.7,4.7,0,0,1,0-.53c.11-2,.52-2.72,1.48-2.92,1.63-.37,2.39.53,2.35,3.43,0,2.5-.6,3.29-1.9,3.29s-1.84-.73-1.93-2.58C200,172.29,200,172.07,200,171.85Zm-2.35,9.68a1.62,1.62,0,0,0,2.3-.81,2.06,2.06,0,0,0,.09-.62v-2.24l0-.35s0-.09,0-.13.05,0,.05,0l.2.13.05,0,.13.09.16.09.13.07a4.67,4.67,0,0,0,3.94-.16c1.5-.77,2.33-2.14,2.51-4.57.38-4.91-1-7-3.72-7.5a4.39,4.39,0,0,0-3.49.69l-.11.09-.09,0,0-.09-.07-.11-.05-.11-.06-.09a1.64,1.64,0,0,0-2.13-.33c-.47.27-.67.66-.67,1.5v12.8A1.56,1.56,0,0,0,197.62,181.53Z" transform="translate(-171.63 -111.9)"/><path class="cls-1" d="M215.84,170.26h-3.11c-.09-.07-.13-.18-.07-.51a1.75,1.75,0,0,1,.23-.55l.13-.2a1.72,1.72,0,0,1,1-.6,1.59,1.59,0,0,1,2.15,1.33c.07.44,0,.53,0,.53Zm3.56-.29c-.31-3.16-2.51-4.93-6.13-4.29-2.2.38-3.61,1.93-3.92,4.58-.69,5.72,1.77,8.42,5.93,7.87,2.55-.35,3.87-1.77,3.87-2.83a1.39,1.39,0,0,0-1.16-1.46c-.45-.09-.81,0-1.43.6-1.59,1.37-3.38.95-3.88-.36a1,1,0,0,1-.08-.33c-.09-.46,0-.62,0-.66h5.46C219.4,173.09,219.67,172.69,219.4,170Z" transform="translate(-171.63 -111.9)"/><path class="cls-1" d="M221.89,176.63v-9.51a1.5,1.5,0,0,1,2-1.55c.53.16.74.34.85.67l0,.13,0,.07.09-.09.11-.09.09-.07.13-.11a3.07,3.07,0,0,1,1.05-.48c1.39-.31,2.49.33,2.69,1.19.31,1.39-.52,2-2.46,1.79a1,1,0,0,0-.34,0,1.27,1.27,0,0,0-1,1.35l0,.31v6.43a1.41,1.41,0,0,1-.88,1.41A1.57,1.57,0,0,1,221.89,176.63Z" transform="translate(-171.63 -111.9)"/><path class="cls-1" d="M230.39,176.27v-8.93a2.32,2.32,0,0,1,.07-.59,1.58,1.58,0,0,1,2.3-.89,1.54,1.54,0,0,1,.83,1.46v8.91c0,.29,0,.6,0,.9a1.44,1.44,0,0,1-1.39,1.13C231.06,178.33,230.39,177.62,230.39,176.27Zm-.2-13a1.66,1.66,0,0,1,3.31-.11,1.66,1.66,0,0,1-3.18.78A1.9,1.9,0,0,1,230.19,163.25Z" transform="translate(-171.63 -111.9)"/><path class="cls-1" d="M236.41,174.24v-6.88c0-1.26.43-1.83,1.46-1.92s1.72.55,1.72,1.7v6.3c0,1.42.74,2.12,2,1.84a1.67,1.67,0,0,0,.92-.56,2,2,0,0,0,.38-1.5v-6.1a1.51,1.51,0,0,1,1.47-1.72,1.55,1.55,0,0,1,1.7,1.68v9.17a1.6,1.6,0,0,1-2.75,1.28l0-.06-.09-.16-.09-.15-.11.06-.07.07-.07.07-.18.13a1.58,1.58,0,0,1-.31.22,4.08,4.08,0,0,1-2.87.29,3.54,3.54,0,0,1-3-3.14C236.44,174.66,236.41,174.44,236.41,174.24Z" transform="translate(-171.63 -111.9)"/><path class="cls-1" d="M248.91,176.38v-9a1.53,1.53,0,0,1,2.84-1l0,.11.05.07.07-.09.11-.06.15-.14.16-.11a3.71,3.71,0,0,1,2.49-.55A3.26,3.26,0,0,1,257,166.7l.23.22.09-.06.13-.14.18-.13.11-.11a4.39,4.39,0,0,1,2.69-.86c2.41-.05,4,1.21,4.38,3.18a3.29,3.29,0,0,1,.07.71v6.7c0,.24,0,.48,0,.75a1.5,1.5,0,0,1-1.61,1.24,1.69,1.69,0,0,1-1.64-1.93V170a1.52,1.52,0,0,0,0-.29,1.31,1.31,0,0,0-1.34-1.17,1.46,1.46,0,0,0-1.75,1.35v6.5a1.64,1.64,0,1,1-3.27,0V170a1.37,1.37,0,0,0-1.7-1.41,1.47,1.47,0,0,0-1.25.9,1.78,1.78,0,0,0-.12.76v6.19a3.19,3.19,0,0,1-.09.7,1.62,1.62,0,0,1-2.46.84A1.63,1.63,0,0,1,248.91,176.38Z" transform="translate(-171.63 -111.9)"/><path class="cls-2" d="M174.39,156.75c-.58-1.1-1.15-2.34-1.73-3.43.46-4,.3-8.09,1.83-11.86a11.72,11.72,0,0,1,1.79-2.39c1.15-1.79,1.84-3.75,2.84-5.71.66-1.2,1.63-2.08,2.29-3.28a24.73,24.73,0,0,1,.89-3.18c.33-.45.95-.58,1.28-1,1.15-1.8,2.89-2.81,3.88-4.61a3.23,3.23,0,0,0,2.25-2.21c0-1.07.68-1.52,1.78-2.09.32-.14.5-.89.81-.88,1.71-.09,3.4.12,5.12-.12,1.09-.27,2.17-.23,3.27-.49s2,.22,3.1,0a59.86,59.86,0,0,0,5.79-1.63c.51-1.35,2-.84,3.12-.8.47-.14.64-.59,1-.89.78-.43,1.7-.09,2.48-.06.61.17,1.38.35,2,.53,3.53.89,7.12.25,10.14,2.35,2,.38,4.16.45,6.16.83a7.84,7.84,0,0,1,1.84.53,4.73,4.73,0,0,1,1.53.66,5.55,5.55,0,0,0,2.89,1.33c1.53.51,2.57,1.77,4.09,2.59a3.67,3.67,0,0,1,.88,1.26,2.82,2.82,0,0,0,1.36,1c1.07.35,2.13,1,3.2,1.34s1,1.26,1.48,2c.89,1.1,2.58,1.47,3,2.71a12.56,12.56,0,0,1,1.11,3.4,9.47,9.47,0,0,0,.36,2.92,7.43,7.43,0,0,0,1,2.33c1.33,1.58,3.32,2.26,4.18,4.28l.45.47c1.31,2,1.39,4.18,1.93,6.34,0,.46,0,.77,0,1.22a21.49,21.49,0,0,1,1,2.94l-3.79,2.16c-.44-.62-.73-1.4-1.17-2,.37-1.51-.2-3.06,0-4.58-1-1.42-1.59-3.27-3.43-3.8a7.49,7.49,0,0,1-.85-2,12.92,12.92,0,0,0-1.56-4c-1-1.56-2.32-3.06-2.1-4.89,0-.15-.32-.24-.47-.24-.77-.18-.94-.65-1.7-1-.61-.18-.9-.8-1.5-1.28-.3-.32-.59-.79-.89-1.1a14.59,14.59,0,0,1-3.27-3.64c-2.87-2.09-6.05-4-9.76-4.32a27.37,27.37,0,0,0-4.54-2.76,15.09,15.09,0,0,0-3.59-.89c-4-.45-7.18-.54-11.21-.68-1.42,0-3.16.91-5.49,1.45-.94.28-1.86-.06-2.8.21-2.34.53-4.67.75-7,1.28-.82,1-.87,2.42-2,3-1.43.86-3.16.77-4.59,1.79-1.76,1.31-3.34,3.13-5.09,4.59-.78,0-1.27.72-1.6,1.32a24.3,24.3,0,0,1-3.28,4.93,4.42,4.42,0,0,0-.84,2,17.12,17.12,0,0,1-2.64,4.19,1.14,1.14,0,0,0-.33.75c-.09,2.44-.95,4.71-1,7.15-1,1.95-.61,4.11-.69,6.25a1.69,1.69,0,0,1-.17.45,21.31,21.31,0,0,1-2.93-.56Z" transform="translate(-171.63 -111.9)"/><path class="cls-2" d="M254.18,156.38c-.45-.63.09-1.59-.52-2.07.37-1.51-.39-2.86-.33-4.38A14.24,14.24,0,0,1,252,148c-.29-.46-.28-.77-.57-1.24-1.77-2.51-2.76-5.14-4.21-7.64.21-1.68-1.78-2.21-3-3a7.31,7.31,0,0,1-1.33-1.73c-.15-.31-.46-.32-.6-.63-.15-.16,0-.3-.14-.46-.44-.48-.74-.95-1.18-1.42-.15-.16-.46-.17-.61-.33-1.2-1.11-2.23-2.52-3.77-2.88-3.21-1-6.6-1.62-9-3.84-.61,0-1.06-.65-1.67-.83-.15,0-.47.14-.62.13a17,17,0,0,0-4.8-.17,29.92,29.92,0,0,1-7.42-.26c-2,.69-4.23,1.22-6.42,1.76-.15,0-.17.3-.32.29-.62.13-1.25.41-2,.54-.16,0-.32.29-.48.44-.94.27-1.44,1.17-2.23,1.45a12.09,12.09,0,0,1-3.92,1.39c-1.13,1.18-1.95,2.68-3.39,3.7a7.17,7.17,0,0,1-1.71.4,6.59,6.59,0,0,1-1.12.73,10.43,10.43,0,0,0-1.43,1.17,11.82,11.82,0,0,1-2.93,3.87,1.84,1.84,0,0,0-.19.91,6.76,6.76,0,0,0-1.71,4.37,7.2,7.2,0,0,0-1.51,3.32c-.38,1.66,0,3.36-.5,5-.19,1.07-.85,2.12-1,3.33,1.85.22,3.71.13,5.56.51a3.74,3.74,0,0,0,.37-1.83,4.76,4.76,0,0,0-.54-2.16c1-1.34.73-2.88,1.09-4.39.18-.61,1-1,1.3-1.49.67-1.35,1.34-2.85,2.16-4.2.67-1.35,2.25-2.06,3.38-3.24.49-.75.52-1.52,1-2.26.8-.74,1.3-1.64,2.1-2.38,1.91-1.3,3.61-1.76,5.51-2.92,1.11-.57,1.8-2,2.89-2.28.62,0,1.09-.12,1.71-.09.3,0,.63-.29.94-.28a6.57,6.57,0,0,0,4.21-.92c2.48.09,5.29-.57,7.4,1,2.77.56,5.89-.25,8.3,1.68a13.19,13.19,0,0,0,2.25,2.06,13,13,0,0,0,2.29.85c.45.32,1.07.34,1.53.67,1,1.1,1.6,2.65,3.13,3.32.14.16.3.16.44.47,1,1,2.59,1.32,3.16,2.72.44.62,1.35,1,1.33,1.73.39,2,1.1,3.86,1.65,5.71,1.18,1.42,3.15,2.72,2.92,4.85,0,.31.29.47.28.77a11.14,11.14,0,0,1-.24,2.29c2,.07,3.88-.17,5.9-.25Z" transform="translate(-171.63 -111.9)"/><path class="cls-2" d="M191.91,156.45a9.07,9.07,0,0,0,.87-2.72,16.8,16.8,0,0,0-.21-2.61c.06-1.83,1.36-3.31,2.35-5,.66-1.2,1.93-2.07,2.9-3.26,1-1.34,2.11-2.53,2.48-4.19a16,16,0,0,0,6.64-3.74,9.17,9.17,0,0,1,2.83-1.13c1.09-.11,2,.23,3.1.12.78-.28,1.58-1,2.36-1a26.15,26.15,0,0,1,9.7,1.42c1.53.66,3.06,1.18,4.58,1.84,1.19,1.42,3,1.94,4.54,3.07a22.31,22.31,0,0,0,3.18,1.95,2.56,2.56,0,0,0,.24,1.84,7,7,0,0,1,1,1.11c.3.32.76.48,1.06.8.14.31.44.48.74.79a17.81,17.81,0,0,1,1.31,2.34c.42,1.24.85,2.33,1.26,3.57.43,1.08,1.33,1.88,1.6,3a3.94,3.94,0,0,1,0,1.37c-2.46-.39-4.78-.47-7.25-.71-.12-.93-.57-1.55-.69-2.48a10.07,10.07,0,0,0-1.69-4.49c-.3-.32-.75-.64-1.05-1-.74-.94-1.49-1.73-2.23-2.68-1.05-1-1.62-2.19-2.83-3-1.67-1-2.87-2.09-4.7-2.77a15.52,15.52,0,0,0-2.61-.7l-5.86-.67a12.33,12.33,0,0,0-2.33.22c-.31.14-.78.28-1.1.42-.33.45-.77,0-1.1.57-.33.45-.72.31-1.19.45a4.32,4.32,0,0,1-1.56.32c-.15,0-.21.59-.37.59-1.26.56-2.07.6-3,1.79a63.75,63.75,0,0,0-4.23,5.5,7.1,7.1,0,0,0-1.17,2.41,30.26,30.26,0,0,1-.91,3.64,7.25,7.25,0,0,0-1,1.34,4.88,4.88,0,0,0-.09,2.6c-1.84-.53-3.7-.6-5.54-1Z" transform="translate(-171.63 -111.9)"/><path class="cls-2" d="M201.18,156.94c.34-.6,0-1.38.23-2,.5-1.06,1.16-2,1.66-3,.17-.46-.12-.92.05-1.38a11.91,11.91,0,0,1,2.61-3.57,21.71,21.71,0,0,1,5.55-4.34,43.59,43.59,0,0,1,6.55-.58,14.62,14.62,0,0,0,5.7,1,16.16,16.16,0,0,1,3.9,3.35,8.84,8.84,0,0,0,2.58,1.47,29.33,29.33,0,0,1,3.29,7.46c-1.55.1-3.26.19-4.8.14-.44-.63-1-1.27-1-2a8.28,8.28,0,0,0-3.53-5.17,13.28,13.28,0,0,0-2.29-.85c-2-.53-3.86-.44-5.86-.82a20.41,20.41,0,0,0-6.12,2.08c-1.3,1.79-3.06,3.4-3.46,5.68,0,1.07-.08,2.3-.12,3.36-1.69-.36-3.24-.42-4.93-.78Z" transform="translate(-171.63 -111.9)"/><path class="cls-2" d="M210.33,156.81c.81-1.05.86-2.42,1.21-3.63.17-.46.64-.44,1.11-.73.64-.43,1-1,1.6-1.32.47-.13.8-.58,1.26-.56,1.85.22,3.86.44,5.7.81.6.63,1.37.66,2,1.14.74.95,1.16,2.18,1.9,3.28-.94.27-1.75,1.16-2.84,1.28-3.26.19-6.37.53-9.64,1a17.41,17.41,0,0,1-2.78-.25,1.42,1.42,0,0,0,.51-1.05Z" transform="translate(-171.63 -111.9)"/><path class="cls-1" d="M174.2,185.53h-1.08v2.61a1.34,1.34,0,0,0,.06.6.33.33,0,0,0,.33.18c.31,0,.7-.15.86-.15s.1,0,.1.13v.39c0,.28,0,.3-.27.32a8.49,8.49,0,0,1-.88,0c-1,0-1.16-.28-1.16-1.49v-2.64h-.26c-.24,0-.27-.05-.27-.28V185c0-.17.12-.23.27-.23h.26v-1c0-.25.05-.28.27-.28h.46c.17,0,.23.12.23.28v1h1.08c.23,0,.29.05.29.23v.15C174.49,185.49,174.47,185.53,174.2,185.53Z" transform="translate(-171.63 -111.9)"/><path class="cls-1" d="M179.62,189.56h-.36c-.33,0-.37,0-.37-.3V186.5a2.48,2.48,0,0,0-.09-.95.56.56,0,0,0-.47-.16,2.55,2.55,0,0,0-1.47.57v3.3c0,.24,0,.3-.23.3h-.36c-.33,0-.37,0-.37-.3V183c0-.25,0-.28.27-.28h.46c.18,0,.23.12.23.28v2.12a3.28,3.28,0,0,1,1.58-.48,1.23,1.23,0,0,1,1.41,1.33v3.32C179.85,189.5,179.81,189.56,179.62,189.56Z" transform="translate(-171.63 -111.9)"/><path class="cls-1" d="M184.34,186.3c0,.17,0,.28,0,.46h-2v-.2c0-.93.18-1.16,1.06-1.16S184.34,185.6,184.34,186.3Zm.92.71a3.51,3.51,0,0,0-.28-1.7,1.62,1.62,0,0,0-1.58-.69,1.81,1.81,0,0,0-1.71.7,3.57,3.57,0,0,0-.32,1.87,2.89,2.89,0,0,0,.46,2,2.23,2.23,0,0,0,1.61.51,9.42,9.42,0,0,0,1.53-.15c.21,0,.22-.1.22-.3a1.77,1.77,0,0,0,0-.24c0-.24,0-.31-.11-.31a9.27,9.27,0,0,1-1.62.23,2,2,0,0,1-.76-.14c-.35-.17-.35-.75-.35-1.31H185C185.25,187.48,185.26,187.41,185.26,187Z" transform="translate(-171.63 -111.9)"/><path class="cls-1" d="M189.66,188.31a3,3,0,0,1-1.54.65c-.38,0-.52-.23-.52-.8s.2-.81,1.36-.81l.7,0Zm1,.95v-2.58c0-1.05-.11-1.31-.36-1.61a1.74,1.74,0,0,0-1.33-.44,10.59,10.59,0,0,0-1.67.21c-.11,0-.14.08-.14.27v.38c0,.13,0,.19.13.19l.13,0a8.14,8.14,0,0,1,1.59-.27.6.6,0,0,1,.58.29,2.9,2.9,0,0,1,.11.93,7.17,7.17,0,0,0-2.22.25c-.51.19-.76.67-.76,1.42,0,.95.41,1.42,1.29,1.42a2.88,2.88,0,0,0,1.69-.65v.21c0,.28,0,.3.35.3h.38C190.57,189.56,190.62,189.5,190.62,189.26Z" transform="translate(-171.63 -111.9)"/><path class="cls-1" d="M194.6,185.53h-1.08v2.61a1.34,1.34,0,0,0,.06.6.32.32,0,0,0,.33.18c.3,0,.7-.15.86-.15s.1,0,.1.13v.39c0,.28,0,.3-.27.32a8.53,8.53,0,0,1-.89,0c-1,0-1.15-.28-1.15-1.49v-2.64h-.26c-.24,0-.28-.05-.28-.28V185c0-.17.13-.23.28-.23h.26v-1c0-.25.05-.28.27-.28h.46c.16,0,.23.12.23.28v1h1.08c.23,0,.29.05.29.23v.15C194.89,185.49,194.87,185.53,194.6,185.53Z" transform="translate(-171.63 -111.9)"/><path class="cls-1" d="M199.17,186.3c0,.17,0,.28,0,.46h-2v-.2c0-.93.18-1.16,1.06-1.16S199.17,185.6,199.17,186.3Zm.92.71a3.51,3.51,0,0,0-.28-1.7,1.62,1.62,0,0,0-1.58-.69,1.81,1.81,0,0,0-1.71.7,3.57,3.57,0,0,0-.32,1.87,2.89,2.89,0,0,0,.46,2,2.23,2.23,0,0,0,1.61.51,9.31,9.31,0,0,0,1.53-.15c.21,0,.22-.1.22-.3a1.77,1.77,0,0,0,0-.24c0-.24,0-.31-.11-.31a9.27,9.27,0,0,1-1.62.23,2,2,0,0,1-.76-.14c-.35-.17-.35-.75-.35-1.31h2.67C200.08,187.48,200.09,187.41,200.09,187Z" transform="translate(-171.63 -111.9)"/><path class="cls-1" d="M204.23,185.59a2.39,2.39,0,0,0-1.58.44v3.23c0,.24-.06.3-.23.3H202c-.32,0-.36,0-.36-.3v-4.21c0-.24.05-.27.27-.27h.49c.16,0,.23.12.23.27v.22a2.67,2.67,0,0,1,1.51-.55c.17,0,.27.07.27.19v.36C204.43,185.52,204.39,185.59,204.23,185.59Z" transform="translate(-171.63 -111.9)"/><path class="cls-2" d="M205.73,186.06h1.12V185a.51.51,0,0,1,.16-.37.53.53,0,0,1,.74,0,.56.56,0,0,1,.15.37v1.1H209a.57.57,0,0,1,.38.16.51.51,0,0,1,0,.73.56.56,0,0,1-.37.15H207.9v1.11a.54.54,0,0,1-.15.37.52.52,0,0,1-.74,0,.48.48,0,0,1-.16-.36v-1.13h-1.12a.52.52,0,1,1,0-1Z" transform="translate(-171.63 -111.9)"/><path class="cls-1" d="M213.2,185.53h-1.08v2.61a1.34,1.34,0,0,0,.06.6.33.33,0,0,0,.33.18c.31,0,.7-.15.86-.15s.1,0,.1.13v.39c0,.28,0,.3-.27.32a8.53,8.53,0,0,1-.89,0c-.95,0-1.15-.28-1.15-1.49v-2.64h-.26c-.24,0-.27-.05-.27-.28V185c0-.17.12-.23.27-.23h.26v-1c0-.25.05-.28.27-.28h.46c.16,0,.23.12.23.28v1h1.08c.23,0,.29.05.29.23v.15C213.49,185.49,213.47,185.53,213.2,185.53Z" transform="translate(-171.63 -111.9)"/><path class="cls-1" d="M218.21,187.16a3.1,3.1,0,0,1-.2,1.33c-.18.33-.4.42-1,.42s-.84-.09-1-.42a3.07,3.07,0,0,1-.21-1.33,3,3,0,0,1,.21-1.32c.18-.34.39-.44,1-.44s.84.1,1,.44A3,3,0,0,1,218.21,187.16Zm1,0a2.68,2.68,0,0,0-.53-1.91,2,2,0,0,0-1.66-.63,2.07,2.07,0,0,0-1.66.63,3.77,3.77,0,0,0,0,3.82,2.5,2.5,0,0,0,3.32,0A2.66,2.66,0,0,0,219.18,187.16Z" transform="translate(-171.63 -111.9)"/><path class="cls-1" d="M223.84,189.56h-.36c-.33,0-.37,0-.37-.3V186.5a2.21,2.21,0,0,0-.1-.95.55.55,0,0,0-.47-.16,2.3,2.3,0,0,0-1.46.69v3.18c0,.24-.05.3-.23.3h-.36c-.33,0-.37,0-.37-.3v-4.21c0-.24,0-.27.27-.27h.46c.17,0,.23.12.23.27v.17a2.42,2.42,0,0,1,1.58-.61,1.23,1.23,0,0,1,1.41,1.33v3.32C224.07,189.5,224,189.56,223.84,189.56Z" transform="translate(-171.63 -111.9)"/><path class="cls-1" d="M228.55,186.3c0,.17,0,.28,0,.46h-2v-.2c0-.93.18-1.16,1-1.16S228.55,185.6,228.55,186.3Zm.92.71a3.51,3.51,0,0,0-.28-1.7,1.63,1.63,0,0,0-1.59-.69,1.8,1.8,0,0,0-1.7.7,3.57,3.57,0,0,0-.32,1.87,2.89,2.89,0,0,0,.46,2,2.23,2.23,0,0,0,1.61.51,9.42,9.42,0,0,0,1.53-.15c.21,0,.22-.1.22-.3a1.77,1.77,0,0,0,0-.24c0-.24,0-.31-.11-.31a9.27,9.27,0,0,1-1.62.23,2,2,0,0,1-.76-.14c-.35-.17-.35-.75-.35-1.31h2.67C229.46,187.48,229.47,187.41,229.47,187Z" transform="translate(-171.63 -111.9)"/><path class="cls-1" d="M233.86,186.3c0,.17,0,.28,0,.46h-2v-.2c0-.93.17-1.16,1-1.16S233.86,185.6,233.86,186.3Zm.91.71a3.51,3.51,0,0,0-.28-1.7,1.62,1.62,0,0,0-1.58-.69,1.81,1.81,0,0,0-1.71.7,3.59,3.59,0,0,0-.31,1.87,2.83,2.83,0,0,0,.46,2,2.2,2.2,0,0,0,1.6.51,9.31,9.31,0,0,0,1.53-.15c.21,0,.22-.1.22-.3a1.77,1.77,0,0,0,0-.24c0-.24,0-.31-.1-.31a9.63,9.63,0,0,1-1.63.23,2,2,0,0,1-.76-.14c-.34-.17-.34-.75-.34-1.31h2.66C234.76,187.48,234.77,187.41,234.77,187Z" transform="translate(-171.63 -111.9)"/><path class="cls-1" d="M237.07,189.56h-.37c-.32,0-.36,0-.36-.3V183c0-.25,0-.28.27-.28h.46c.16,0,.23.12.23.28v6.29C237.3,189.5,237.25,189.56,237.07,189.56Z" transform="translate(-171.63 -111.9)"/><path class="cls-1" d="M241.93,188.69a4.32,4.32,0,0,1-1.26.23c-.54,0-.74-.2-.82-.86a7.07,7.07,0,0,1-.06-.87,3.46,3.46,0,0,1,.22-1.36c.14-.32.37-.43.91-.43s.67,0,1,0Zm.95,1.39V185c0-.23,0-.28-.25-.3-.56,0-.93,0-1.39,0-1.11,0-1.51.14-1.91.61a3.17,3.17,0,0,0-.52,2c0,1.69.5,2.43,1.73,2.43a6.71,6.71,0,0,0,1.39-.18,5.56,5.56,0,0,1,0,.82c0,.42-.26.56-.87.56a8.35,8.35,0,0,1-2-.28c-.09,0-.1.08-.13.25a2.43,2.43,0,0,0,0,.38c0,.16,0,.21.18.25a8.82,8.82,0,0,0,1.89.2,2,2,0,0,0,1.75-.71A1.39,1.39,0,0,0,242.88,190.08Z" transform="translate(-171.63 -111.9)"/><path class="cls-1" d="M247.13,185.59a2.41,2.41,0,0,0-1.59.44v3.23c0,.24,0,.3-.23.3h-.39c-.33,0-.37,0-.37-.3v-4.21c0-.24,0-.27.27-.27h.49c.17,0,.23.12.23.27v.22a2.73,2.73,0,0,1,1.51-.55c.18,0,.27.07.27.19v.36C247.32,185.52,247.28,185.59,247.13,185.59Z" transform="translate(-171.63 -111.9)"/><path class="cls-1" d="M251.85,187.16a3.07,3.07,0,0,1-.21,1.33c-.18.33-.4.42-1,.42s-.85-.09-1-.42a2.93,2.93,0,0,1-.21-1.33,2.85,2.85,0,0,1,.21-1.32c.17-.34.38-.44,1-.44s.83.1,1,.44A3,3,0,0,1,251.85,187.16Zm1,0a2.68,2.68,0,0,0-.54-1.91,2,2,0,0,0-1.65-.63,2.09,2.09,0,0,0-1.67.63,3.77,3.77,0,0,0,0,3.82,2.05,2.05,0,0,0,1.67.63,2,2,0,0,0,1.65-.63A2.66,2.66,0,0,0,252.82,187.16Z" transform="translate(-171.63 -111.9)"/><path class="cls-1" d="M257.2,186.3c0,.17,0,.28,0,.46h-2v-.2c0-.93.18-1.16,1.06-1.16S257.2,185.6,257.2,186.3Zm.92.71a3.51,3.51,0,0,0-.28-1.7,1.62,1.62,0,0,0-1.58-.69,1.81,1.81,0,0,0-1.71.7,3.57,3.57,0,0,0-.32,1.87,2.89,2.89,0,0,0,.46,2,2.23,2.23,0,0,0,1.61.51,9.31,9.31,0,0,0,1.53-.15c.21,0,.22-.1.22-.3a1.77,1.77,0,0,0,0-.24c0-.24,0-.31-.11-.31a9.27,9.27,0,0,1-1.62.23,2,2,0,0,1-.76-.14c-.35-.17-.35-.75-.35-1.31h2.67C258.11,187.48,258.12,187.41,258.12,187Z" transform="translate(-171.63 -111.9)"/><path class="cls-1" d="M262.89,187.1c0,1-.17,1.58-.56,1.74a1.23,1.23,0,0,1-.53.09,3.76,3.76,0,0,1-1.16-.19V186a3.64,3.64,0,0,1,1.57-.63.57.57,0,0,1,.58.49A8,8,0,0,1,262.89,187.1Zm1,0a2.86,2.86,0,0,0-.48-2,1.23,1.23,0,0,0-1-.42,3.64,3.64,0,0,0-1.72.61v-.18c0-.15-.06-.27-.23-.27H260c-.22,0-.28,0-.28.27v6.3c0,.28.05.3.37.3h.36c.18,0,.23-.06.23-.3v-1.81a4.66,4.66,0,0,0,1.13.16,1.92,1.92,0,0,0,1.82-.93A3.46,3.46,0,0,0,263.86,187.07Z" transform="translate(-171.63 -111.9)"/></svg>